<?xml version="1.0" encoding="utf-8"?>
<!-- Generator: Adobe Illustrator 23.0.0, SVG Export Plug-In . SVG Version: 6.00 Build 0)  -->
<svg version="1.1" id="レイヤー_1" xmlns="http://www.w3.org/2000/svg" xmlns:xlink="http://www.w3.org/1999/xlink" x="0px"
	 y="0px" viewBox="0 0 357.34 640.87" width="357.34" height="640.87" style="enable-background:new 0 0 357.34 640.87;" xml:space="preserve">
<style type="text/css">
	.st0{fill:none;stroke:#040000;stroke-miterlimit:10;}
	.st1{fill:#5C5C5C;stroke:#5C5C5C;stroke-miterlimit:10;}
	.st2{fill:#F3E45C;}
	.st3{fill:none;}
	.st4{fill:#333333;stroke:#333333;stroke-miterlimit:10;}
	.st5{fill:#E9BD73;stroke:#E9BD73;stroke-miterlimit:10;}
	.st6{fill:#040000;stroke:#040000;stroke-miterlimit:10;}
	.st7{fill:none;stroke:#333333;stroke-miterlimit:10;}
	.st8{fill:#A3AA25;stroke:#A3AA25;stroke-miterlimit:10;}
	.st9{fill:#B2C642;stroke:#B2C642;stroke-miterlimit:10;}
	.st10{fill:#F7DCA9;stroke:#F7DCA9;stroke-miterlimit:10;}
	.st11{fill:#404041;stroke:#404041;stroke-miterlimit:10;}
	.st12{fill:none;stroke:#FFFFFF;stroke-width:2;stroke-miterlimit:10;}
	.st13{fill:none;stroke:#9D7F25;stroke-width:9;stroke-miterlimit:10;}
	.st14{fill:#D5C760;}
	.st15{fill:#B97F1A;stroke:#B97F1A;stroke-miterlimit:10;}
	.st16{fill:#F5C44A;stroke:#F5C44A;stroke-miterlimit:10;}
	.st17{fill:#B37F1D;stroke:#B37F1D;stroke-miterlimit:10;}
	.st18{fill:#DE9215;stroke:#DE9215;stroke-miterlimit:10;}
	.st19{fill:#866126;stroke:#866126;stroke-miterlimit:10;}
	.st20{fill:#D18F28;stroke:#D18F28;stroke-miterlimit:10;}
	.st21{fill:#D07D1D;stroke:#D07D1D;stroke-miterlimit:10;}
	.st22{fill:none;stroke:#F5C126;stroke-width:10;stroke-miterlimit:10;}
</style>
<path class="st0" d="M247.46,523.27"/>
<path class="st1" d="M200.52,326.63c-0.08-0.19-0.15-0.33-0.35-0.34c-2.12,3.7-1.18,10.71-1.27,14.79
	c-0.24,10.3-0.14,20.62,0.12,30.92c0.17,6.74,0.42,13.49,0.84,20.22c0.48,7.73,1.74,15.78,1.57,23.67
	c-0.08,3.75-0.09,7.5-0.11,11.25c-0.05,10.26,0.01,20.52,0.27,30.77c0.27,10.31,0.66,20.65,1.75,30.91
	c0.58,5.45,0.71,13.4,4.22,17.99c0.02,0.02,0.04,0.04,0.05,0.07c0,0,3.34,7.45,3.34,7.45s14.64,6.94,27.74,1.54
	c0,0,7.91-117.09,8.89-134.35c0.06-1.14,0.1-1.84,0.1-2.05c0-3.34,2.83-5.39,3.08-1.54l-4.62,81.43l-2.57,34.16
	c0,0-3.34,18.75,3.34,24.4c0,0,6.68,5.65,23.12,6.94c0,0,19.01,1.03,22.6-14.64c0,0,5.91-71.15,5.65-75.01
	c0,0,7.96-61.65,8.99-65.24c0,0,8.22-34.93,8.22-41.1c0,0-25.69-10.79-41.61-13.1c0,0-25.69-2.57-38.53-1.8
	c0,0-13.36,0.51-15.67,2.05C219.68,316.01,200.76,322.81,200.52,326.63z"/>
<path class="st2" d="M224.15,150.8c0,0-30.34,18.63-37.23,30.88c-4.17,8.85-8.39,17.68-12.65,26.48
	c-4.15,8.57-7.77,17.42-12.61,25.64c-5.04,8.56-11.8,16.44-17.81,24.33c-5.85,7.68-11.99,15.08-17.09,23.31
	c-2.68,4.33-5.93,9.36-6.75,14.49c-0.92,5.78,2.03,7.03,6.2,10.5c2.89,2.41,5.58,4.24,9.35,3.07c7.44-2.32,15.07-10.93,18.48-17.53
	c0,0,23.04-33.33,28.92-37.26l13.24-12.75c0,0,3.43-1.47,5.88,3.92c0,0,0.98,56.37-3.92,69.12c0,0-3.19,12.55-1.29,17.3
	c0.11,0.27,0.23,0.51,0.37,0.73c2.63,4.03,30.37,10.54,46.33,10.69c0,0,57.16,0.14,69.65-8.87c0,0,2.32,2.91,6.1-8.14l7.56-24.12
	l22.67-70.03c0,0,0.83-5.73-9.48-32.79c-0.55-1.44-1.32-2.79-2.29-3.99c-5.13-6.35-20.2-27.68-25.13-30.64
	c0,0-6.97-8.72-21.79-10.17C290.84,154.99,245.5,143.11,224.15,150.8z"/>
<path class="st2" d="M223.41,160.78c0,0,17.88,20.92,37.56,0c0,0-2.96,19.65-8.8,21.98l-12.57,4c0,0-11.26-4.49-11.59-5.91
	C228.01,180.85,217.48,163.78,223.41,160.78z"/>
<path class="st3" d="M210.23,78.84c-0.2,0.65-0.37,1.3-0.53,1.96c0.88-2.37,1.95-4.57,3.13-6.6
	C211.65,75.55,210.76,77.13,210.23,78.84z"/>
<path class="st3" d="M263.42,142.92c0.13,1.98,0.37,4.04,1.18,5.86c0.01,0.01,0.01,0.03,0.02,0.04c0.18-4.18,0.41-8.35,1.22-12.4
	c1.05-5.28,2.5-10.5,4.23-15.6c0.2-0.58,0.42-1.15,0.67-1.71c-1.86,3.21-3.76,6.4-3.76,6.4L263.42,142.92z"/>
<path class="st4" d="M299.27,164.72c-1.1-3.05-2.5-7.95-4.43-15.7c-0.13-0.51-0.22-1.03-0.28-1.55
	c-1.37-11.78-2.33-23.73-2.06-35.59c0.12-5.1,1.41-10.2,1.13-15.3c-0.41-7.38-0.34-15.16-3.33-22.01
	c-3.4-7.76-7.58-16.41-13.29-22.75c-5.02-5.57-11.51-9.77-18.62-12.15c-11.24-3.76-23.43-2.58-34.19,2.16
	c-7.7,3.39-14.17,9.48-18.76,16.48c-10.2,15.58-14.75,38.24-15.07,56.69c-0.29,16.83-0.57,31.88-7.02,47.86
	c-1.61,3.99,2.07,12.89,10.8,11.57c0,0,6.09,1.24,13.65,1.24c3.04,0,5.26-0.03,7.27-2.78c1.31-1.81,2-3.98,2.88-6.03
	c3.68-8.57,14.4-18.21,11.58-28.32c-1.84-4.62-5.62-7.67-5.62-7.67c-13.25-10.13-16.37-31.96-16.37-31.96
	c-0.8-6.83,0.21-12.88,2.16-18.11c0.16-0.65,0.33-1.3,0.53-1.96c0.53-1.72,1.42-3.29,2.6-4.64c6.32-10.81,15.76-16.6,15.76-16.6
	c12.57-9.34,28.08,0,28.08,0c5.33,2.2,7.81,23.72,7.81,23.72c1.95,6.75,8.34,13.49,8.34,13.49c1.95-3.55,4.97,1.07,4.97,1.07
	c4.44,4.62,0,11.18,0,11.18c-1.42,1.6-3.91,6.39-3.91,6.39c-0.58,1.17-1.86,3.42-3.16,5.67c-0.26,0.56-0.48,1.13-0.67,1.71
	c-1.72,5.1-3.87,8.42-4.93,13.7c-0.77,3.88-1.48,9.07-1.69,13.17c-0.01,0.28,0.01,0.56,0.1,0.83c0.69,2.06-0.09,4.29,1.68,19.25
	c0.5,2.9,0.59,5.15,2.48,7.47c4.04,4.96,12.26,3.43,17.72,2.64c4.38-0.63,14.68,0.04,15.33-5.97
	C301.01,169.56,300.07,166.93,299.27,164.72z"/>
<g>
	<path class="st5" d="M264.23,158.41c0.12-1.02,0.22-2.04,0.22-3.09c0.01-4.48-0.69-8.93-0.51-13.42c0.13-3.14,0.69-6.25,1.41-9.31
		c0.59-2.54,0.92-5.9,2.25-8.14c0.71-1.2,1.93-3.27,3.13-5.34c0.22-0.49,0.47-0.96,0.75-1.41c2.07-3.28,1.3-8.48,0.8-11.98
		c-0.45-3.14-0.57-6.58-2.21-9.39c-1.44-2.46-5.95-14.58-7.1-18.41c-1.17-3.9-3.86-7.4-6.01-10.8c-1.8-2.85-3.82-5.73-6.41-7.94
		c-1.9-1.62-3.38-1.76-5.49-2.42c-10.68-3.34-25.38,10.28-31.2,16.27c-0.46,0.61-1.19,1.58-1.64,2.19c-0.86,1.57-1.64,3.24-2.33,5
		c-0.14,0.37-0.26,0.75-0.34,1.13c-3.52,16.13,6.7,31.34,9.32,34.9c0.44,0.59,0.85,1.21,1.21,1.85c4.06,7.12,7.24,14.64,9.01,19.15
		c0.17,0.42,0.3,0.85,0.42,1.27c1.28,3.23,1.62,7.22-0.94,11.49c-1.34,2.24-6.18,8.72-2.33,15.93c1.61,3.01,4.06,5.44,7.14,6.9
		c0.4,0.19,0.81,0.33,1.24,0.44c3.51,0.91,19.52,4.37,29.18-5.51c0.16-0.16,0.3-0.33,0.44-0.51c0.46-0.57-0.45-4.79-0.37-5.77
		C263.98,160.47,264.12,159.44,264.23,158.41z"/>
	<path class="st5" d="M219.91,117.78c-0.25-0.44-0.53-0.86-0.83-1.26c-2.3-3.07-13.36-18.97-9.37-35.72
		c-1.94,5.23-2.96,11.28-2.16,18.11c0,0,3.12,21.82,16.37,31.96c0,0,3.78,3.05,5.62,7.67c-0.12-0.42-0.25-0.85-0.42-1.27
		C227.32,132.69,224.06,125,219.91,117.78z"/>
	<path class="st5" d="M245.08,56.78c2.11,0.66,3.58,0.79,5.49,2.42c2.59,2.21,4.61,5.08,6.41,7.94c2.15,3.4,4.84,6.9,6.01,10.8
		c1.15,3.83,5.66,15.95,7.1,18.41c1.64,2.81,1.76,6.25,2.21,9.39c0.5,3.49,1.27,8.69-0.8,11.98c-0.29,0.45-0.53,0.93-0.75,1.41
		c1.3-2.25,2.58-4.5,3.16-5.67c0,0,2.49-4.79,3.91-6.39c0,0,4.44-6.57,0-11.18c0,0-4.11-3.63-6.06-0.08
		c0.08-0.14-0.42-1.07-0.47-1.21c-0.43-1.11-0.85-2.23-1.26-3.35c-0.57-1.57-1.13-3.14-1.66-4.73c-0.79-2.35-1.28-4.65-1.59-7.11
		c-0.24-1.89-0.55-3.77-0.95-5.63c-1.69-7.91-4.63-14.54-12.52-17.81c-8.01-3.32-17.45-3.74-24.69,1.64c0,0-9.44,5.79-15.76,16.6
		c0.12-0.14,0.23-0.28,0.35-0.42C218.42,68.26,233.94,53.3,245.08,56.78z"/>
</g>
<circle class="st6" cx="223.47" cy="88.99" r="2.23"/>
<circle class="st6" cx="243.52" cy="88.99" r="2.23"/>
<path class="st7" d="M267.7,282.23"/>
<ellipse class="st8" cx="311.34" cy="222.72" rx="43.89" ry="14.45"/>
<path class="st9" d="M275.95,294.64l-8.24-70.06c0,0,34.61,29.99,87.28,0.55l-15.98,72.16c-0.39,1.74-1.72,3.12-3.45,3.54
	c-8.24,2.03-33.12,6.79-56.66-2.37C277.29,297.83,276.15,296.36,275.95,294.64z"/>
<path class="st10" d="M118.69,305.11l-29.38,18.06c-1.42,0.87-1.88,2.72-1.03,4.14c1.74,2.91,5.81,6.75,14.82,4.29
	c0.08-0.02,0.16-0.05,0.23-0.07l8.36-2.9c0,0,3.07-0.7,2.55,2.09c0,0-3.13,5.57-0.87,5.39c0,0,5.24,1.18,9.88-4.11
	c0.14-0.16,0.26-0.34,0.37-0.52c0.92-1.63,5.54-9.95,6.47-14.52c0.15-0.72,0.02-1.46-0.34-2.09c-1.26-2.23-4.55-7.95-5.24-8.51
	c0,0-1.22-1.73-4.26-1.7C119.7,304.65,119.16,304.82,118.69,305.11z"/>
<path class="st5" d="M344.64,259.54c0,0-4.5-6.58-12.81-6.92c0,0-7.62-1.04-2.08,3.46l-17.65,3.46c0,0-9.35,5.88,0,11.42
	c0,0,10.73,7.96,22.85,3.46C334.94,274.42,350.52,272.69,344.64,259.54z"/>
<path class="st2" d="M342.31,255.96c-0.2,0.62-0.22,1.29-0.04,1.92c0.7,2.44,2.45,8.96,2.22,11.93c-0.07,0.9,0.63,1.66,1.53,1.65
	c3.64-0.03,1.85-1.06,8.97-8.4c0.04-0.41,3.61-5.46,1.88-10.56c-1.14-3.38-4.07-10.86-5.02-10.66c-2.52,0.54-2.83,2.44-4.1,4.68
	C345.96,249.67,343.5,252.28,342.31,255.96z"/>
<path class="st11" d="M42.86,522.41c0,0-7.8,13.93-7.8,13.93c-1.73,3.73-4.51,9.98-6.18,13.73c-1.69,3.81-2.73,4.44-4.97,7.91
	c-0.4,0.62-0.8,1.25-1.18,1.89c-0.78,1.32-1.47,2.69-1.94,4.14c-1.27,3.96-1.35,10.84,3.04,13.04c5.48,2.75,13.72-0.29,18.66-3.03
	c6.46-3.58,11.98-10.44,15.57-16.75c3.33-5.84,4.81-12.77,8.73-18.3c3.16-4.45,8.6-7.74,8.85-13.19c0.12-2.64,0.58-5.68-1.85-7.1
	c-3.64-2.12-8.26-1.83-12.32-2.04C54.95,516.31,47.48,517.27,42.86,522.41z"/>
<path class="st12" d="M35.19,557.97c0,0-3.58-4.09-5.22-3.17c0,0-3.88,2.36,0.64,3.82c0.18,0.06,0.38,0.12,0.59,0.17
	C36.62,560.23,35.19,557.97,35.19,557.97z"/>
<path class="st12" d="M35.43,559.73c0,0,4.43,3.16,5.81,1.89c0,0,3.23-3.19-1.5-3.57c-0.19-0.02-0.4-0.03-0.62-0.03
	C33.52,557.87,35.43,559.73,35.43,559.73z"/>
<path class="st12" d="M32.45,560.92c0,0-5.35,1.7-4.45,2.74C28,563.67,29.1,565.01,32.45,560.92z"/>
<path class="st12" d="M36.74,567.21c0,0,1.66-0.5-0.81-5.16C35.93,562.04,35.44,567.64,36.74,567.21"/>
<path class="st1" d="M7.86,273.39c-2.57,40.13-4.56,80.38-2.78,120.59c1.81,40.88,11.74,82.94,16.93,123.48
	c0.58,4.52,6.1,21.45,6.68,25.97l53.2-7.71L70.15,351.64l25.07,151.94l55.46-6.08c0,0-13.67-203.6-18.99-208.92L46.6,265.03
	C46.6,265.03,8.68,260.52,7.86,273.39z"/>
<path class="st5" d="M83.67,19.2l33.93,6.48c0,0,14.41,16.59,15.29,34.36c0,0,0.69,14.66-8.84,32.57c0,0-7.8,9.95-14.71,16.71
	l0.79,16.57c0,0,6.68,28.05-11.6,28.5c0,0-4.75,0.77-9.15,1.1c-0.25,0.02-0.49,0.03-0.73,0.05c-4.58,0.29-14.18-4.44-17.33-8.59
	c0,0-9.88-12.17-11.03-18.48c0,0,2.29-9.6,2.29-10.88l0.57-16.18c0,0-4.44-3.69-6.6-13.04c0,0-1.85-9.59-4.71-12.45
	c0,0-9.02-0.86-9.31-9.88c0,0-2.01-11.03,3.44-11.31c0,0,4.15-2.29,7.45,2.86c0,0,4.3-18.65,9.12-22.05
	C62.53,35.53,67.13,24.15,83.67,19.2z"/>
<circle class="st6" cx="88.36" cy="56.84" r="2.13"/>
<circle class="st6" cx="106.8" cy="56.84" r="2.13"/>
<path class="st4" d="M76.27,1.68c12.72-3.44,26.83,1.15,38.11,7.12c6.38,3.38,12.86,8.35,15.61,15.17
	c3.42,8.49,2.29,17.67,1.96,26.57c-3.16-5.11-4.92-10.83-9.02-15.56c-0.69-0.79-1.51-1.52-2.18-2.37c-0.65-0.84-1.27-1.69-1.95-2.5
	c-1.24-1.47-2.12-3.54-3.98-4.33c-2.93-1.26-4.86-0.54-7.37,1.27c-1.37,0.99-2.96,1.42-4.6,1.72c0,0-6.02,1.09-10.85-2.07
	c-1.24-0.61-2.46-1.2-3.71-1.81c-2.39-0.61-4.41-2.58-6.91-3.07c-2.1-0.41-3.99,1.4-5.55,2.6c-3.42,2.63-5.17,6.1-5.55,10.26
	c-0.45,4.89-4.11,10.04-6.35,14.32c-1.04,1.99-1.5,3.39-2.13,4.87c-1.11,2.61-6.55,6.14-8.54,5.11c0,0-7.62-3.93-6.43-22.48
	c0.22-3.45,1.46-8.03,2.72-11.3C53.75,14.32,64.62,4.83,76.27,1.68z"/>
<path class="st13" d="M79.13,472.27c0,0-19.16-95.41-0.82-105.2c8.58-4.58,91.8-10.46,102.36-9.65c0,0,12.45-3.38,16.25,25.33
	l12.04,79.04"/>
<path class="st5" d="M161.5,346.37c0.11-0.45,5.98-1.36,6.66-1.51c2.64-0.57,5.29-1.12,7.96-1.6c2.52-0.46,5.06-0.89,7.62-1.12
	c1.35-0.12,3.3-0.47,4.58,0.17c1.06,0.53,2.07,3.59,2.45,4.62c4.1,11.08-15.36,13.07-21.47,9.11c-0.87-0.56-1.71-1.14-2.63-1.57
	c0.73,0.35-1.77,2.45-2.45,2.47c-1.38,0.04-2.52-1.33-3.08-2.4C159.92,352.21,160.86,348.74,161.5,346.37z"/>
<path class="st5" d="M92.3,353.21c-0.2-0.42-5.76,2.1-6.41,2.34c-2.53,0.95-5.05,1.93-7.55,2.97c-2.37,0.98-4.74,2-7.01,3.19
	c-1.2,0.63-3.03,1.39-3.76,2.62c-0.61,1.03,0.89,6.26,1.12,7.32c0.35,1.56,2.65,2.24,3.95,2.92c2.44,1.28,5.76,0.44,8.26-0.33
	c3.38-1.04,8.96-4.65,10.1-8.69c0.44-0.97,0.88-1.94,1.31-2.91c-0.12,0.35,2.35,1.79,2.8,1.46C99.61,360.71,94,356.91,92.3,353.21z"
	/>
<path class="st2" d="M62.06,102.28c-0.69,0.09-1.4,0.71-2.18,1.23c-2.41,1.6-4.8,3.23-7.15,4.9c-5.5,3.9-10.41,8.46-15.68,12.64
	c-4.06,3.22-8.1,6.46-12.05,9.82c-1.81,1.54-3.6,3.1-5.32,4.73c-2.96,2.81-5.97,6.13-7.86,9.81c-2.75,5.37-3.99,11.47-4.63,17.42
	c-0.06,0.51-0.09,1.02-0.15,1.53c-1.84,15.54-2.66,36.93-3.95,52.52c-0.99,11.93-1.67,23.88-2.37,35.84
	c-0.69,11.82-0.91,24.42-0.5,36.4c0.2,5.81,0.49,11.65,3.66,16.72c2.76,4.43,6.96,7.68,10.88,11.01c4.33,3.68,8.62,7.42,13.21,10.78
	c3.45,2.52,7.07,4.85,10.92,6.7c1.91,0.92,3.9,1.82,5.94,2.4c1.93,0.55,3.91,0.44,5.56,1.77c3.73,3.01,5.31,4.09,8.47,7.78
	c3.57,4.16,6.28,8.57,8.12,13.77c0.09,0.24,1.65,0.36,1.72,0.59c0,0,10.85-2.31,14.89-5.14c0,0,0.81-0.38,4.57-1.78
	c0,0-14.92-11.68-15.07-11.8c-0.75-0.59,1.82,0.51,2.51-0.16c4.66-4.46,10.03-3.41,15.23-4.25c6.39-1.03,12.98-1.19,19.3-2.47
	c6.74-1.47,13.31-3.65,20.05-5.12c16.61-3.62,12.65-19,12.73-32.15c0,0,0.13-24.01,0.13-24.01l10.91,49.46l3.86,18.81
	c0,0-2.41,5.31,9.65,3.38l19.29-4.82c0,0,1.26-3.04,1.75-6.9l-5.6-46.55c0,0-5.79-52.18-9.17-65.69c-0.4-5.2-0.81-10.4-1.23-15.59
	c-0.77-9.56-1.69-19.12-2.44-28.68c-0.82-10.48-1.99-21.04-3.01-31.46c-1.48-15.06-14.16-21.47-25.14-29.38
	c-1.81-1.3-22.89-11.06-25.76-12.73c-1.38,1.87-5.68,4.19-6.72,7.49c-1.04,3.33-0.62,7.65-0.19,11.09c0.6,4.84,0.51,9.81-0.2,14.64
	c-0.72,4.95-1.78,9.09-6.45,11.63c-4.46,2.43-9.88,4.62-14.96,3.67c-2.98-0.56-6.04-1.26-8.77-2.61c-3.94-1.95-6.7-5.36-8.62-9.24
	c-1.84-3.72-3.65-8.17-4.31-12.28c-0.41-2.54-0.33-5.12-0.46-7.68c-0.21-4.19-0.01-8.39-0.38-12.57c-0.12-1.34-0.42-2.66-1.04-3.85
	C63.35,102.56,62.71,102.19,62.06,102.28z"/>
<path class="st14" d="M11.05,147.33c0.69-1.08,1.55-2.06,2.6-2.91c2.91-2.35,6.86-3.72,10.6-3.36c4.46,0.43,14.36,6.02,14.8,11.03
	c1.3,12.67,2.93,25.32,4.57,37.95c3.23,24.95,6.78,49.88,11.37,74.62c1.93,10.4,4.03,20.8,6.71,31.04
	c2.6,9.92,5.81,18.51,12.03,26.72c6.88,9.09,12.05,19.39,17.95,29.11c1.26,2.07-0.38,1.71-1.69,2.22
	c-6.32,2.46-22.98,10.34-23.54,10.43c-0.52-1.45-38.49-46.42-45.57-57.46c-8.61-13.42-8.24-25.86-8.98-41.59
	c-0.83-17.57-1.53-35.15-2.09-52.73c-0.4-12.51-0.73-25.03-0.77-37.55C9,166.86,6.33,154.69,11.05,147.33z"/>
<path class="st14" d="M163.94,137.14c-11.28-14.62-16.33,10.21-16.33,10.21l-5.8,127.42c2.35,11.15,4.71,22.3,7.09,33.45
	c1.38,6.44,2.76,12.88,4.16,19.31c0.89,4.08,2.01,8.26,2.74,12.43c0.47,2.68,1.09,6.06,4.23,6.71c3.29,0.69,6.91-0.43,10.08-1.22
	c0,0,13.69-3.34,18.64-4.42c1.35-0.29,1.34-1.51,1.18-2.59c-0.32-2.14-0.44-4.3-0.83-6.42c-0.4-2.22-0.88-4.43-1.17-6.66
	c-0.17-1.29-0.34-2.57-0.51-3.86c-0.49-3.73-0.98-7.45-1.47-11.18c-0.66-5-1.31-10.01-1.97-15.01c-0.78-5.97-1.57-11.95-2.35-17.92
	c-0.87-6.64-1.74-13.27-2.61-19.91c-0.92-6.99-1.83-13.98-2.75-20.97c-0.92-7.03-1.85-14.07-2.77-21.1
	c-0.89-6.77-0.89-13.43-1.78-20.2c-0.81-6.2-1.2-12.41-2.01-18.61c-0.7-5.31-0.77-10.51-1.47-15.83c-0.45-3.46-0.29-6.97-0.6-10.44
	c-0.28-3.22-1.26-6.2-2.03-9.32C165.41,140.2,164.05,137.97,163.94,137.14z"/>
<ellipse class="st1" cx="121.01" cy="629.05" rx="18.47" ry="11.32"/>
<ellipse transform="matrix(0.0549 -0.9985 0.9985 0.0549 -368.009 843.2166)" class="st1" cx="261.44" cy="616.02" rx="11.32" ry="18.47"/>
<path class="st15" d="M275.91,613.04L94.08,630.07c-6.44,1.46-12.9-2.6-14.36-9.04l-25.6-112.53c-1.46-6.44,2.6-12.9,9.04-14.36
	l222.23,76.3C294.68,608.07,285.42,611.39,275.91,613.04z"/>
<path class="st16" d="M278.62,600.96L109.7,615.88c-6.51,0.71-17.89,3.29-18.62-3.46L65.02,501.34
	c21.04-69.13,42.9-14.48,49.41-15.19c11.85-1.29,24.17-0.78,36.1-1.17c12.28-0.4,24.56-0.79,36.84-1.19
	c24.38-0.79,48.77-1.61,73.15-2.41c1.84-0.06,3.69-0.11,5.53-0.17c0.75-0.02,1.63,0.02,2.07,0.65c0.26,0.37,0.29,0.85,0.32,1.3
	c1.24,21.84,6.63,42.78,11.81,63.92c2.96,13.44,5.92,26.88,8.88,40.31C289.85,594.15,285.13,600.25,278.62,600.96z"/>
<path class="st17" d="M130.62,400.47c23.82-3.74,76.87-11.66,100.48-11.9c6.36-0.06,11.49,5.17,11.39,11.52
	c-0.02,1.37-0.04,2.79-0.05,4.17c-0.05,5.76-4.41,10.56-10.13,11.17l-96.9,10.26c-3.93,0.42-7.8-1.24-10.2-4.39
	c-0.94-1.23-1.92-2.69-2.82-4.36C118.66,410.12,122.94,401.68,130.62,400.47z"/>
<polygon id="右_1_" class="st18" points="288.5,499.4 271.97,512.84 253.67,462.08 250.01,428.71 "/>
<path class="st19" d="M103.81,414.35c29.43-3.33,116.61-13,147.5-14.16c6.2-0.23,11.57,4.26,12.46,10.39
	c1.36,9.32,3.28,23.33,4.04,33.08c0.47,6-3.55,11.43-9.41,12.77l-133.91,30.71c-5.71,1.31-11.54-1.63-13.88-7
	c-5.61-12.9-15.17-36.47-17.48-51.98C92.13,421.38,96.99,415.12,103.81,414.35z"/>
<path class="st15" d="M91.13,431.56l172.55-9.3c4.55-0.24,8.6,2.83,9.57,7.28c4.47,20.41,6.69,78.88,5.64,86.95
	c0,0-163.22,31.85-165.87,25.21l-24.38-58.21C88.64,483.49,77.2,435.54,91.13,431.56z"/>
<polygon id="左_1_" class="st20" points="135.03,579.4 100.82,607.22 74.26,513.2 72.93,450.26 "/>
<path id="全面_1_" class="st21" d="M266.8,590.14l-165.24,17.09l5.13-88.69l182.5-17.82l-8.48,79.9
	C280.12,587.38,273.58,589.57,266.8,590.14z"/>
<ellipse transform="matrix(0.5404 -0.8414 0.8414 0.5404 -339.8234 259.558)" class="st22" cx="67.69" cy="440.85" rx="61.8" ry="11.23"/>
<ellipse transform="matrix(0.5404 -0.8414 0.8414 0.5404 -338.9916 269.7719)" class="st22" cx="77.45" cy="445.2" rx="61.8" ry="14.34"/>
<path class="st19" d="M99.24,453.44l-0.05,0.02c-6.07,2.27-8.93,8.32-14.74-5.78l-17.11-45.86c-2.03-5.45,1.27-11.76,7.35-14.02
	l0.05-0.02c6.07-2.27,12.71,0.34,14.74,5.78l17.11,45.86C108.62,444.87,105.32,451.18,99.24,453.44z"/>
<ellipse transform="matrix(0.5404 -0.8414 0.8414 0.5404 -345.7507 282.8607)" class="st22" cx="86.05" cy="457.93" rx="61.8" ry="11.23"/>
</svg>
